<?xml version="1.0" standalone="no"?>
<!DOCTYPE svg PUBLIC "-//W3C//DTD SVG 20010904//EN"
 "http://www.w3.org/TR/2001/REC-SVG-20010904/DTD/svg10.dtd">
<svg version="1.0" xmlns="http://www.w3.org/2000/svg"
 width="966.000000pt" height="966.000000pt" viewBox="0 0 966.000000 966.000000"
 preserveAspectRatio="xMidYMid meet">
<metadata>
Created by potrace 1.11, written by Peter Selinger 2001-2013
</metadata>
<g transform="translate(0.000000,966.000000) scale(0.100000,-0.100000)"
fill="#000000" stroke="none">
<path d="M0 5836 l0 -3825 138 -3 c75 -2 2249 -3 4830 -4 l4692 0 0 3828 0
3828 -4830 0 -4830 0 0 -3824z m4660 1683 c163 -37 220 -219 106 -334 -108
-107 -284 -77 -347 60 -53 115 15 244 146 276 42 10 44 10 95 -2z m731 0 c55
-12 119 -60 143 -108 39 -77 24 -164 -38 -226 -91 -90 -231 -86 -314 10 -40
45 -52 74 -52 126 0 96 66 175 165 200 43 10 39 10 96 -2z m-2256 -98 c51 -23
88 -64 114 -122 19 -41 145 -508 252 -931 23 -93 45 -168 48 -168 3 0 41 141
84 313 43 171 112 448 154 615 l76 302 188 0 c104 0 189 -4 189 -9 0 -11 -246
-889 -342 -1221 -94 -325 -119 -374 -220 -424 -119 -60 -257 -21 -329 93 -35
55 -28 32 -180 581 -66 239 -123 444 -128 454 -5 15 -19 -22 -50 -135 -120
-432 -234 -828 -250 -864 -77 -173 -312 -211 -429 -69 -46 56 -58 85 -123 308
-59 199 -342 1206 -355 1259 l-6 27 186 0 c184 0 187 0 195 -22 4 -13 75 -290
157 -615 82 -326 152 -593 155 -593 3 0 31 101 63 224 123 483 216 834 231
869 21 52 73 107 120 128 53 25 147 24 200 0z m1655 -1081 l0 -580 -175 0
-175 0 -1 550 c-1 303 -1 561 -1 575 0 14 0 27 1 30 1 3 80 5 176 5 l175 0 0
-580z m730 0 l0 -580 -175 0 -175 0 0 318 c0 174 -3 435 -7 580 l-6 262 181 0
182 0 0 -580z m-862 -990 c102 -24 166 -102 167 -201 0 -101 -80 -185 -187
-196 -68 -7 -118 9 -165 50 -129 113 -77 307 92 348 42 10 45 10 93 -1z m730
-1 c54 -11 123 -62 146 -108 68 -136 -37 -291 -198 -291 -105 0 -206 98 -206
200 0 97 65 176 165 201 43 10 39 10 93 -2z m1082 -409 c5 -412 5 -415 29
-463 69 -139 225 -221 421 -221 146 0 252 37 340 120 58 54 95 121 109 198 7
36 11 203 11 418 l0 358 144 0 c80 0 157 -5 173 -11 42 -16 83 -58 109 -114
l24 -50 0 -481 0 -481 -31 -61 c-35 -70 -71 -104 -149 -141 l-55 -26 -670 0
-670 0 -56 23 c-76 30 -132 81 -166 150 l-28 57 -3 475 c-2 333 0 486 8 513 6
22 30 58 55 82 61 62 109 74 270 72 l130 -2 5 -415z m690 47 c0 -372 0 -374
-23 -418 -46 -87 -157 -140 -261 -125 -66 10 -133 60 -170 126 l-31 55 -3 368
-3 367 246 0 245 0 0 -373z m-4025 264 c51 -24 88 -64 114 -122 17 -39 144
-507 267 -986 16 -62 31 -113 34 -113 3 0 27 89 54 198 26 108 96 385 154 615
l105 417 189 0 c103 0 188 -4 188 -8 0 -12 -230 -837 -330 -1182 -106 -368
-129 -414 -236 -466 -48 -23 -63 -26 -127 -22 -108 7 -156 38 -211 138 -14 26
-81 251 -156 520 -72 261 -135 484 -139 494 -5 15 -19 -23 -50 -135 -120 -432
-234 -828 -250 -864 -44 -99 -129 -155 -237 -155 -105 0 -194 60 -243 165 -23
48 -431 1477 -431 1508 0 4 83 7 185 7 183 0 186 0 194 -22 4 -13 75 -290 157
-615 82 -326 152 -593 155 -593 3 0 31 101 63 224 123 483 216 834 231 869 21
52 73 107 120 128 53 25 147 24 200 0z m1658 -513 c-2 -5 -3 -264 -3 -578 l0
-570 -173 0 -174 0 -7 570 c-4 314 -4 575 -1 580 8 12 361 9 358 -2z m727
-568 l0 -580 -175 0 -175 0 0 318 c0 174 -3 435 -7 580 l-6 262 181 0 182 0 0
-580z m-2125 -700 c3 -5 3 -15 -1 -21 -6 -11 -23 6 -24 24 0 10 18 9 25 -3z
m55 -20 c0 -5 -2 -10 -4 -10 -3 0 -8 5 -11 10 -3 6 -1 10 4 10 6 0 11 -4 11
-10z m-2839 -178 c-7 -2 -18 1 -23 6 -8 8 -4 9 13 5 13 -4 18 -8 10 -11z
m7986 2 c-3 -3 -12 -4 -19 -1 -8 3 -5 6 6 6 11 1 17 -2 13 -5z m-6151 -109
c57 -17 95 -52 120 -110 21 -51 29 -207 19 -387 l-7 -135 -74 -2 -74 -2 0 219
c0 207 -1 221 -21 246 -19 24 -26 26 -105 26 l-84 0 0 -239 c0 -273 9 -251
-97 -250 l-63 1 0 244 0 244 -105 0 -105 0 0 -244 0 -244 -75 1 -75 2 0 323 0
322 348 0 c278 0 358 -3 398 -15z m934 -15 c29 -17 53 -41 70 -70 25 -44 25
-49 25 -265 0 -188 -2 -224 -17 -251 l-17 -31 -361 -1 -361 -1 -22 47 c-20 43
-21 64 -22 237 0 211 9 257 64 309 52 49 92 56 356 53 236 -2 241 -2 285 -27z
m857 15 c58 -17 103 -61 124 -122 10 -27 14 -93 14 -223 0 -155 -3 -193 -18
-232 -10 -26 -26 -49 -35 -52 -9 -2 -182 -4 -384 -4 l-368 0 0 324 0 324 308
0 c246 0 319 -3 359 -15z m884 5 c54 -15 100 -50 123 -95 19 -37 21 -57 21
-250 0 -184 -2 -216 -19 -252 l-18 -42 -378 1 -377 0 -7 91 c-3 49 -6 195 -6
324 l0 233 313 0 c178 0 328 -4 348 -10z m1049 -70 l0 -80 -325 0 -325 0 0
-66 c0 -56 2 -65 18 -63 9 1 155 1 325 0 l307 -1 0 -75 0 -75 -325 0 c-269 0
-327 -2 -331 -14 -9 -23 15 -95 36 -106 11 -6 135 -10 319 -10 l301 0 0 -40 0
-39 -382 2 -382 2 -20 35 c-20 33 -21 53 -24 323 l-3 287 405 0 406 0 0 -80z
m756 65 c89 -26 134 -97 134 -209 0 -36 -7 -85 -15 -109 -13 -37 -13 -49 0
-91 8 -27 15 -89 15 -138 l0 -88 -75 0 -75 0 0 64 c0 80 -15 125 -47 137 -13
5 -121 9 -239 9 l-214 0 0 -104 0 -104 -73 0 -74 0 -6 196 c-4 107 -7 253 -7
324 l0 128 313 0 c247 0 324 -3 363 -15z m1034 -65 l0 -80 -325 0 -325 0 0
-65 0 -65 243 1 c204 1 249 -2 283 -16 52 -21 91 -60 106 -104 17 -54 15 -153
-6 -199 l-18 -39 -384 0 -384 0 0 38 0 39 325 0 325 0 0 65 0 65 -233 0 c-270
0 -316 8 -366 65 -39 44 -55 104 -48 182 5 67 27 115 68 145 58 44 88 47 422
48 l317 0 0 -80z"/>
<path d="M2851 2994 c-19 -24 -21 -40 -21 -179 0 -139 2 -155 21 -179 l20 -26
203 0 c226 0 239 3 250 65 4 20 4 97 0 172 -6 113 -10 139 -26 155 -16 16 -37
18 -222 18 l-205 0 -20 -26z"/>
<path d="M3730 2913 c0 -60 -3 -152 -7 -205 l-6 -98 231 0 231 0 20 26 c19 24
21 40 21 179 0 139 -2 155 -21 179 l-20 26 -225 0 -224 0 0 -107z"/>
<path d="M4620 2815 l0 -205 223 0 c253 0 261 2 272 71 4 23 4 100 0 171 -6
108 -11 134 -26 149 -17 17 -37 19 -244 19 l-225 0 0 -205z"/>
<path d="M6412 2958 l3 -63 245 0 245 0 3 63 3 62 -251 0 -251 0 3 -62z"/>
<path d="M0 985 l0 -985 4830 0 4830 0 0 985 0 985 -4830 0 -4830 0 0 -985z"/>
</g>
</svg>
